<?xml version="1.0" encoding="UTF-8"?>
<svg width="160px" height="160px" viewBox="0 0 160 160" version="1.1" xmlns="http://www.w3.org/2000/svg" xmlns:xlink="http://www.w3.org/1999/xlink">
    <!-- Generator: Sketch 63.1 (92452) - https://sketch.com -->
    <title>status 1</title>
    <desc>Created with Sketch.</desc>
    <g id="Page-1" stroke="none" stroke-width="1" fill="none" fill-rule="evenodd">
        <g id="confirmation-page_status-1" transform="translate(-560.000000, -260.000000)">
            <g id="content" transform="translate(560.000000, 260.000000)">
                <g id="status-1">
                    <path d="M80,0 C124.18278,-8.11624501e-15 160,35.81722 160,80 C160,124.18278 124.18278,160 80,160 C35.81722,160 5.41083001e-15,124.18278 0,80 C-5.41083001e-15,35.81722 35.81722,8.11624501e-15 80,0 Z" id="background" fill="#5EE043"></path>
                    <path d="M103.794979,46.2853918 L108.061442,50.5518548 L72.5415578,86.0703918 L93.9193065,107.448145 L89.6528436,111.714608 L68.2755578,90.3363918 L68.2050208,90.4082761 L63.9385578,86.1418131 L64.0095578,86.0703918 L63.9385578,86.0003225 L68.2050208,81.7338595 L68.2755578,81.8043918 L103.794979,46.2853918 Z" id="icon-status-1" fill="#FFFFFF" transform="translate(86.000000, 79.000000) scale(-1, 1) rotate(-90.000000) translate(-86.000000, -79.000000) "></path>
                </g>
            </g>
        </g>
    </g>
</svg>